HIERARCHY
ROOT Hips
{
 OFFSET 0.000000 0.000000 0.000000
 CHANNELS 6 Xposition Yposition Zposition Yrotation Xrotation Zrotation
 JOINT Chest
 {
  OFFSET 0.000000 12.953391 -0.028419
  CHANNELS 3 Yrotation Xrotation Zrotation
  JOINT Chest2
  {
   OFFSET 0.000000 10.280254 0.051622
   CHANNELS 3 Yrotation Xrotation Zrotation
   JOINT Chest3
   {
    OFFSET 0.000000 9.287180 0.000000
    CHANNELS 3 Yrotation Xrotation Zrotation
    JOINT Chest4
    {
     OFFSET 0.000000 9.287180 0.000000
     CHANNELS 3 Yrotation Xrotation Zrotation
     JOINT Neck
     {
      OFFSET 0.000000 13.296264 0.000000
      CHANNELS 3 Yrotation Xrotation Zrotation
      JOINT Head
      {
       OFFSET 0.000000 8.959264 0.099003
       CHANNELS 3 Yrotation Xrotation Zrotation
       End Site
       {
        OFFSET 0.000000 17.121337 0.039303
       }
      }
     }
     JOINT RightCollar
     {
      OFFSET -3.193511 7.451388 0.000000
      CHANNELS 3 Yrotation Xrotation Zrotation
      JOINT RightShoulder
      {
       OFFSET -15.792092 0.000000 0.000000
       CHANNELS 3 Yrotation Xrotation Zrotation
       JOINT RightElbow
       {
        OFFSET -31.151839 0.000000 0.000000
        CHANNELS 3 Yrotation Xrotation Zrotation
        JOINT RightWrist
        {
         OFFSET -25.536298 0.000000 0.002321
         CHANNELS 3 Yrotation Xrotation Zrotation
         End Site
         {
          OFFSET -19.133213 0.000000 0.000000
         }
        }
       }
      }
     }
     JOINT LeftCollar
     {
      OFFSET 3.193511 7.451388 0.000000
      CHANNELS 3 Yrotation Xrotation Zrotation
      JOINT LeftShoulder
      {
       OFFSET 15.792092 0.000000 0.000000
       CHANNELS 3 Yrotation Xrotation Zrotation
       JOINT LeftElbow
       {
        OFFSET 31.151839 0.000000 0.000000
        CHANNELS 3 Yrotation Xrotation Zrotation
        JOINT LeftWrist
        {
         OFFSET 25.536298 0.000000 0.002321
         CHANNELS 3 Yrotation Xrotation Zrotation
         End Site
         {
          OFFSET 19.133213 0.000000 0.000000
         }
        }
       }
      }
     }
    }
   }
  }
 }
 JOINT RightHip
 {
  OFFSET -10.745749 0.139252 0.014209
  CHANNELS 3 Yrotation Xrotation Zrotation
  JOINT RightKnee
  {
   OFFSET 0.000000 -43.743899 -0.006071
   CHANNELS 3 Yrotation Xrotation Zrotation
   JOINT RightAnkle
   {
    OFFSET 0.000000 -43.214199 0.089931
    CHANNELS 3 Yrotation Xrotation Zrotation
    JOINT RightToe
    {
     OFFSET 0.000000 -9.699830 19.151588
     CHANNELS 3 Yrotation Xrotation Zrotation
     End Site
     {
      OFFSET 0.000000 -1.292898 4.893873
     }
    }
   }
  }
 }
 JOINT LeftHip
 {
  OFFSET 10.745749 0.139252 0.014209
  CHANNELS 3 Yrotation Xrotation Zrotation
  JOINT LeftKnee
  {
   OFFSET 0.000000 -43.743899 -0.006071
   CHANNELS 3 Yrotation Xrotation Zrotation
   JOINT LeftAnkle
   {
    OFFSET 0.000000 -43.214199 0.089931
    CHANNELS 3 Yrotation Xrotation Zrotation
    JOINT LeftToe
    {
     OFFSET 0.000000 -9.699830 19.151588
     CHANNELS 3 Yrotation Xrotation Zrotation
     End Site
     {
      OFFSET 0.000000 -1.292898 4.893873
     }
    }
   }
  }
 }
}
MOTION
Frames: 15
Frame Time: 0.016667
0.000000	0.000000	0.000000	0.000000	0.000000	0.000000	1.443190	10.810648	-6.871961	1.038372	15.145965	-10.226536	0.618516	19.858647	-13.303697	0.059248	23.824423	-15.767670	4.032907	42.796689	-23.873944	28.537268	46.680999	-25.362408	2.721837	12.253031	-15.185909	7.853829	-21.804889	15.517211	1.016725	-3.267054	0.780941	-7.708267	11.579579	-5.971503	-5.082121	10.637269	-20.937791	9.183753	-2.906422	-60.462116	8.086024	5.435179	-52.678173	19.112576	5.057354	-47.814928	-8.261326	-23.525207	6.070110	-2.576002	34.144612	0.312536	7.966520	35.034112	2.642957	7.479706	25.335258	1.057208	3.710815	-14.777406	3.031648	0.676959	13.742036	3.497271	-15.999091	9.150920	-1.632647	-16.592079	3.341734	-2.401426
-0.269486	0.482818	-1.189260	1.236578	0.209994	0.298385	2.480735	11.424038	-3.599274	5.034470	14.877277	-5.134202	6.337328	21.845469	-5.746410	9.180376	25.964735	-5.384019	9.922447	52.637692	-11.339229	18.282053	76.300503	-16.930785	14.669232	19.659829	2.043007	17.814554	-6.560443	41.871162	12.607699	7.071089	28.744768	28.948901	10.539332	36.883976	8.038016	10.592270	-10.887411	8.228704	-1.676034	-41.262571	20.192792	2.773076	-32.641106	39.952643	3.223646	-32.242112	-8.637305	-11.547534	1.198977	-11.672021	39.081527	-1.582603	-7.354155	53.332305	-3.872766	-9.307266	42.120766	-2.726576	-1.195452	-12.449938	-4.167343	-6.632888	13.193023	-3.108266	-29.396977	16.793172	-1.951761	-29.389723	10.251777	-1.775926
-0.131477	0.194952	-2.868645	-0.112628	-1.135437	1.518545	3.310569	9.788222	-3.145446	7.597435	12.754178	-1.382553	9.547571	19.747807	-1.595841	10.512766	22.536005	-0.477349	15.551983	52.177852	-3.968557	39.617958	71.955748	5.704176	15.926816	20.163762	6.066799	15.082716	-8.110015	49.689557	10.203997	5.526646	36.723059	22.976552	9.458210	42.164664	7.250415	9.761954	-6.959238	8.501889	-4.473243	-39.355854	20.310216	0.984845	-28.285955	38.768961	2.418928	-30.230880	-6.872099	-9.364249	-0.969596	-10.375131	40.510250	-2.451524	2.228040	55.933944	5.104842	0.169391	38.156077	4.347834	-2.097696	-11.685023	-3.278796	-7.241718	9.396675	-1.928345	-30.016698	16.188463	-4.472130	-29.053202	10.445530	-3.124861
-0.290455	-0.298629	-4.023540	-2.067474	-2.593830	1.915742	3.194207	9.650734	-3.967089	7.996943	13.100833	-2.436247	10.062546	20.330899	-2.742305	10.674325	22.881490	-2.003274	15.417299	52.020868	-6.545724	42.398691	70.904444	3.519900	16.139524	20.266402	4.686125	16.534095	-8.811166	46.643648	11.016132	4.951624	33.769138	23.768655	10.194300	39.190512	7.454010	9.062746	-8.565003	9.867637	-3.914905	-42.840894	21.090068	1.222557	-32.079469	39.280466	3.827443	-33.304501	-6.581035	-8.403218	-1.440719	-11.573497	41.989736	-2.112590	-1.208870	59.401561	3.028947	-2.764499	40.735883	2.289184	-2.272666	-11.632463	-3.767125	-8.367192	7.779707	-1.939524	-32.481941	15.731617	-5.932398	-31.400287	10.516476	-4.949996
-0.362238	-0.777396	-5.255175	-4.030260	-4.301914	2.253151	3.061901	9.677544	-3.973745	7.810513	13.191013	-2.412861	9.787769	20.466742	-2.788254	10.364387	23.096471	-1.874114	14.702712	52.088790	-6.526515	40.372621	71.117543	2.776049	16.117142	20.184846	4.988155	15.833585	-8.267559	46.884492	10.122087	5.186106	34.369536	23.214536	10.200182	40.131300	7.307256	9.170890	-8.451896	9.071023	-3.931833	-42.569707	20.431771	1.264574	-31.802811	38.595980	3.825475	-33.137560	-6.132457	-8.062754	-1.367563	-11.278763	42.736027	-1.763140	-0.622075	60.872641	3.406783	-2.744916	41.345552	2.048196	-1.967178	-12.057756	-3.779890	-8.088025	6.233553	-1.912706	-32.796368	14.851694	-6.190589	-31.694222	10.147633	-5.493804
-0.373766	-1.235583	-6.547016	-5.937682	-6.087570	2.724494	-1.887979	7.935786	-4.941357	6.495708	13.338866	3.490025	8.703538	22.271023	2.151277	3.611116	24.907238	0.636417	10.448473	58.107274	0.255277	85.689488	84.383452	63.950318	11.701950	25.398665	9.772513	7.943234	-3.775703	65.259878	2.441785	7.432136	53.081420	18.056076	-10.098270	65.884016	3.638210	11.783414	-5.990115	3.971337	5.792842	-35.947403	19.349128	-2.210439	-30.165088	31.921268	0.603190	-26.207960	-6.580312	-8.045699	0.416174	-11.823572	37.670073	1.037260	-4.745918	47.747718	5.827479	2.508595	19.778196	2.174670	2.948557	-10.767667	-0.818279	-9.058459	13.084566	0.003648	-46.629604	8.470502	-29.780264	-43.784761	0.215572	-23.641804
-1.552959	-3.507671	-5.457362	-11.151638	-9.999742	0.731099	-0.108993	8.456041	-7.672796	7.254559	12.749148	-3.634767	8.605966	22.916004	-5.993926	3.128816	25.522217	-10.248692	9.830715	53.273785	-13.778085	36.672507	71.574571	-11.093354	10.238566	25.092002	-1.144019	8.555542	-15.232166	43.804661	3.885813	-0.559255	30.529735	17.953380	0.805702	36.709206	1.146252	10.248502	-17.625083	8.326790	1.765144	-55.568206	19.312096	0.833985	-53.050663	26.659687	8.824028	-46.712470	-6.769288	-12.119138	0.738863	-11.769693	31.630540	1.705815	4.268524	59.717408	13.976244	5.899826	30.588478	4.161822	2.239031	-6.296614	-0.956985	-9.934657	7.414156	-2.846962	-53.713476	6.802083	-40.652222	-47.650651	0.600554	-32.445331
-2.504248	-5.392975	-5.997200	-13.927223	-12.058652	-1.842839	2.912692	11.728511	-5.536544	2.829153	16.279360	-5.968613	5.091369	22.325719	-8.990576	5.907662	27.663514	-10.429303	6.091739	54.792724	-19.792205	14.278366	75.390346	-32.076699	15.296634	27.210123	1.466424	15.249038	-11.672433	48.081468	10.260164	0.113337	33.948150	27.977899	-4.268930	37.054644	4.020012	16.756651	-19.041421	8.791379	-0.053341	-57.272991	23.469352	0.636421	-52.861364	32.327426	4.051688	-49.656074	-13.341691	-11.908835	4.192550	-10.932159	30.249303	5.330945	10.441969	55.862510	21.259219	6.549421	20.007536	7.398325	-1.272139	0.079407	0.251207	-9.007170	21.157923	-5.632548	-55.112516	10.777480	-44.424976	-53.090683	-1.187471	-32.990314
-1.057205	-5.550854	-7.053179	-14.137910	-12.478853	-2.020590	0.062441	11.522750	-3.596471	2.131820	17.157436	1.109106	5.673992	22.749947	-0.321776	7.191703	26.773365	1.028416	7.157812	59.917615	-5.503490	-154.955820	86.450364	177.493368	16.539909	23.508055	12.547784	14.592065	-5.309886	70.899915	11.120507	4.015039	57.803087	32.466850	-23.790580	63.019631	10.132404	13.016600	-6.145303	5.056692	-1.032224	-34.842765	24.109623	-9.006061	-26.060021	39.220747	-9.583450	-31.696209	-14.391158	-6.912456	4.752340	-9.474506	32.067198	7.215559	-0.611939	41.865561	13.591961	3.603733	14.450436	10.134346	-1.981907	-6.549514	0.510597	-4.330127	25.903775	-2.035369	-42.073349	13.529709	-26.314866	-44.472459	3.317721	-18.703412
-0.664625	-6.430093	-6.418131	-17.837822	-13.768435	-1.827223	0.886977	10.924414	-4.676124	2.440235	15.506355	-2.905749	5.072108	21.302672	-5.577036	4.706566	24.973845	-5.850060	7.189953	53.224637	-14.999345	26.675154	73.431165	-18.462213	12.942911	23.306884	3.127027	10.356926	-9.961019	50.136101	2.862690	0.533249	36.536219	17.452867	-6.657776	40.647150	4.207639	12.067219	-13.587863	7.363028	-1.205028	-46.754476	19.427501	-1.833219	-40.177834	31.140543	-0.785633	-38.796083	-12.099187	-10.774489	3.211987	-10.619302	28.241570	4.092749	3.676743	46.013091	13.530166	5.098641	17.194065	6.868621	-1.494660	-6.190754	-1.740261	-7.180461	15.965718	-4.959500	-47.141368	6.180082	-33.323532	-47.950691	-1.685995	-26.167655
-0.122063	-7.045619	-6.894336	-19.229852	-14.498438	-2.406596	0.244586	11.061822	-3.302999	2.731290	16.122214	-0.333812	5.619473	21.517881	-1.974905	5.690078	25.617511	-1.440880	6.440448	55.817305	-8.935175	11.565997	80.725635	-20.079464	15.131827	23.373022	8.764292	12.014587	-8.027925	59.807188	6.585575	2.592592	46.278426	26.018745	-13.244490	51.622620	7.257664	13.326706	-9.218830	6.566090	-0.898610	-40.476089	21.861905	-5.037375	-33.281838	35.664916	-4.722228	-34.004766	-13.055897	-10.355172	3.578553	-10.792866	26.876587	4.486776	-0.194610	39.935892	12.303787	2.720467	14.198122	8.388581	-1.877397	-6.742269	-1.229435	-6.809248	21.857953	-4.091824	-43.715878	12.707418	-27.966764	-44.136265	2.489121	-20.506679
0.261419	-8.048975	-6.743692	-21.921817	-15.876884	-2.635958	0.240126	10.731840	-3.744527	2.829861	15.467446	-1.386724	5.763702	21.340401	-3.243360	4.659002	25.256380	-3.493121	7.201757	54.094245	-11.514664	21.572321	75.454879	-17.088842	13.649362	23.091082	6.134564	10.040499	-9.366731	54.612779	3.534081	1.268080	41.216599	20.169863	-8.893786	46.686855	5.291784	12.336360	-11.240836	6.417565	-1.524616	-43.191210	19.048506	-3.379130	-36.644681	31.574782	-2.516857	-35.354663	-12.026188	-11.626003	3.157536	-10.955059	25.936497	3.710638	1.863561	42.124368	12.495630	4.238220	15.302042	7.175073	-1.389365	-6.474806	-1.698438	-7.412902	18.046285	-4.609415	-45.489365	10.119748	-30.259851	-44.938346	0.441682	-22.439936
0.551185	-9.074617	-6.901647	-24.051916	-17.289994	-3.278846	-0.032693	10.605698	-3.375431	2.990377	15.411438	-0.921227	5.915485	21.266310	-2.457421	4.538998	25.349951	-2.758374	6.618160	54.310568	-10.254160	16.205746	75.808132	-18.572538	13.978227	23.016221	7.136536	10.171277	-9.416205	55.698874	4.202322	1.502863	42.391233	22.047542	-9.329504	48.057335	5.740517	12.687445	-10.535680	6.398538	-1.514305	-42.492742	19.433643	-3.841228	-36.104586	32.419837	-2.908931	-34.576792	-11.921710	-12.152667	3.128276	-11.069191	24.618001	3.512836	0.798720	40.156798	11.871014	3.442836	14.326600	7.218609	-1.281454	-6.613533	-1.648270	-7.405884	19.170957	-4.517213	-44.235604	12.411636	-28.705404	-42.922107	1.696326	-20.725608
0.751301	-10.284447	-6.964583	-26.484917	-18.976372	-3.903287	-0.175355	10.450584	-3.364267	3.147500	15.169835	-0.994244	6.148061	21.256456	-2.425910	4.192527	25.327224	-3.009009	6.907269	53.938239	-10.432149	18.075738	74.352301	-17.903448	13.619133	22.872461	6.804459	9.481571	-9.760701	54.660104	3.371684	1.172541	41.489255	20.556689	-8.236466	47.420158	5.335654	12.373585	-10.781256	6.169001	-1.769655	-42.813879	18.378784	-3.528238	-36.723225	31.091499	-2.421441	-34.508193	-11.437559	-12.804561	2.913411	-11.133088	23.669671	3.140190	1.070747	40.036408	11.668902	3.711830	14.381696	6.784320	-1.090445	-6.639161	-1.799058	-7.666291	18.228100	-4.632460	-44.404081	12.464179	-28.725823	-42.376860	1.618128	-20.550479
0.851922	-11.599987	-7.075427	-28.898467	-20.835386	-4.661761	-0.354679	10.328116	-3.240440	3.267685	15.004630	-0.888869	6.299714	21.218902	-2.152365	3.971894	25.344860	-2.888954	6.815850	53.786904	-10.071895	17.042711	73.583792	-18.096259	13.535504	22.722761	6.922605	9.136989	-9.955332	54.349203	3.138926	1.058900	41.290133	20.371102	-7.693927	47.392749	5.296138	12.293537	-10.669283	6.085966	-1.903389	-42.781974	17.997161	-3.474529	-36.924201	30.755018	-2.253920	-34.266610	-11.071215	-13.300249	2.744477	-11.155306	22.646253	2.856005	0.778701	39.222658	11.258423	3.472805	14.092995	6.502687	-0.956659	-6.767106	-1.863636	-7.763907	17.974059	-4.690818	-43.903153	13.272995	-28.071998	-41.234110	2.060965	-19.823726
